<svg xmlns="http://www.w3.org/2000/svg" xmlns:xlink="http://www.w3.org/1999/xlink" width="50" height="50" viewBox="0 0 50 50">
  <defs>
    <clipPath id="clip-path">
      <rect id="Rectangle_6" data-name="Rectangle 6" width="50" height="50" transform="translate(187 302.867)" fill="#fff" stroke="#707070" stroke-width="1"/>
    </clipPath>
  </defs>
  <g id="Briefcase" transform="translate(-187 -302.867)" clip-path="url(#clip-path)">
    <path id="Path_6" data-name="Path 6" d="M23,8.25v2.5H10.5a5,5,0,0,0-5,5v15a5,5,0,0,0,5,5h40a5.005,5.005,0,0,0,5-5v-15a5,5,0,0,0-5-5H38V8.25H23m7.5,17.5a2.5,2.5,0,1,1-2.5,2.5,2.5,2.5,0,0,1,2.5-2.5M5.5,39.358V45.75a5,5,0,0,0,5,5h40a5,5,0,0,0,5-5V39.358a9.9,9.9,0,0,1-5,1.392h-40a9.9,9.9,0,0,1-5-1.392h0" transform="translate(181.5 298.742)" fill="#3949ab"/>
  </g>
</svg>
