<svg xmlns="http://www.w3.org/2000/svg" xmlns:xlink="http://www.w3.org/1999/xlink" width="24" height="24" viewBox="0 0 24 24">
  <defs>
    <clipPath id="clip-path">
      <rect id="Rectangle_589" data-name="Rectangle 589" width="24" height="24" transform="translate(427 975)" fill="#757575"/>
    </clipPath>
  </defs>
  <g id="gps_fixed" data-name="gps fixed" transform="translate(-427 -975)" clip-path="url(#clip-path)">
    <g id="gps_fixed-black-24dp" transform="translate(427 975)">
      <path id="Path_15" data-name="Path 15" d="M0,0H24V24H0Z" fill="none"/>
      <path id="Path_16" data-name="Path 16" d="M12,8a4,4,0,1,0,4,4A4,4,0,0,0,12,8Zm8.94,3A8.994,8.994,0,0,0,13,3.06V1H11V3.06A8.994,8.994,0,0,0,3.06,11H1v2H3.06A8.994,8.994,0,0,0,11,20.94V23h2V20.94A8.994,8.994,0,0,0,20.94,13H23V11H20.94ZM12,19a7,7,0,1,1,7-7A6.995,6.995,0,0,1,12,19Z" fill="#757575"/>
    </g>
  </g>
</svg>
